<svg width="16" height="18" viewBox="0 0 16 18" fill="none" xmlns="http://www.w3.org/2000/svg">
<path d="M1.41748 14.4189H14.5742C15.3545 14.4189 15.8276 14.0205 15.8276 13.4146C15.8276 12.5845 14.981 11.8374 14.2671 11.0986C13.7192 10.5259 13.5698 9.34717 13.5034 8.39258C13.4453 5.20508 12.5986 3.01367 10.3906 2.2168C10.0752 1.12939 9.22021 0.274414 7.9917 0.274414C6.77148 0.274414 5.9082 1.12939 5.60107 2.2168C3.39307 3.01367 2.54639 5.20508 2.48828 8.39258C2.42188 9.34717 2.27246 10.5259 1.72461 11.0986C1.00244 11.8374 0.164062 12.5845 0.164062 13.4146C0.164062 14.0205 0.628906 14.4189 1.41748 14.4189ZM7.9917 17.7476C9.40283 17.7476 10.4321 16.7183 10.54 15.5562H5.45166C5.55957 16.7183 6.58887 17.7476 7.9917 17.7476Z" fill="white"/>
</svg>
