<svg width="23" height="23" viewBox="0 0 23 23" fill="none" xmlns="http://www.w3.org/2000/svg">
<path d="M11.6201 22.2012C17.6143 22.2012 22.5771 17.2275 22.5771 11.2441C22.5771 5.25 17.6035 0.287109 11.6094 0.287109C5.62598 0.287109 0.663086 5.25 0.663086 11.2441C0.663086 17.2275 5.63672 22.2012 11.6201 22.2012ZM11.6201 20.375C6.5498 20.375 2.5 16.3145 2.5 11.2441C2.5 6.17383 6.53906 2.11328 11.6094 2.11328C16.6797 2.11328 20.751 6.17383 20.751 11.2441C20.751 16.3145 16.6904 20.375 11.6201 20.375ZM6.60352 12.8018C7.46289 12.8018 8.16113 12.1035 8.16113 11.2334C8.16113 10.374 7.45215 9.67578 6.60352 9.67578C5.7334 9.67578 5.03516 10.374 5.03516 11.2334C5.03516 12.1035 5.7334 12.8018 6.60352 12.8018ZM11.6094 12.8018C12.4688 12.8018 13.1777 12.1035 13.1777 11.2334C13.1777 10.374 12.4688 9.67578 11.6094 9.67578C10.75 9.67578 10.041 10.374 10.041 11.2334C10.041 12.1035 10.75 12.8018 11.6094 12.8018ZM16.626 12.8018C17.4854 12.8018 18.1836 12.1035 18.1836 11.2334C18.1836 10.374 17.4854 9.67578 16.626 9.67578C15.7559 9.67578 15.0576 10.374 15.0576 11.2334C15.0576 12.1035 15.7559 12.8018 16.626 12.8018Z" fill="#0A84FF"/>
</svg>
