<svg width="21" height="21" viewBox="0 0 21 21" fill="none" xmlns="http://www.w3.org/2000/svg">
<path d="M10.5 20.6855C16.0859 20.6855 20.6855 16.0859 20.6855 10.5C20.6855 4.92383 16.0762 0.314453 10.4902 0.314453C4.91406 0.314453 0.314453 4.92383 0.314453 10.5C0.314453 16.0859 4.91406 20.6855 10.5 20.6855ZM5.76367 12.082C4.88477 12.082 4.17188 11.3691 4.17188 10.4902C4.17188 9.62109 4.88477 8.9082 5.76367 8.9082C6.63281 8.9082 7.3457 9.62109 7.3457 10.4902C7.3457 11.3691 6.64258 12.082 5.76367 12.082ZM10.4902 12.082C9.62109 12.082 8.9082 11.3691 8.9082 10.4902C8.9082 9.62109 9.62109 8.9082 10.4902 8.9082C11.3691 8.9082 12.082 9.62109 12.082 10.4902C12.082 11.3691 11.3691 12.082 10.4902 12.082ZM15.2266 12.082C14.3477 12.082 13.6445 11.3691 13.6445 10.4902C13.6445 9.62109 14.3477 8.9082 15.2266 8.9082C16.0957 8.9082 16.8086 9.62109 16.8086 10.4902C16.8086 11.3691 16.0957 12.082 15.2266 12.082Z" fill="white"/>
</svg>
