<svg width="26" height="24" viewBox="0 0 26 24" fill="none" xmlns="http://www.w3.org/2000/svg">
<path d="M2.35173 22.8732C2.73716 22.8732 3.08755 22.7447 3.54305 22.4878L9.24274 19.4043L15.468 22.8966C15.9586 23.1535 16.4608 23.2937 16.9513 23.2937C17.4302 23.2937 17.9091 23.1652 18.3295 22.9199L24.1694 19.6263C24.9636 19.1824 25.314 18.5517 25.314 17.6641V1.97824C25.314 0.99715 24.73 0.413166 23.7606 0.413166C23.3752 0.413166 23.0365 0.553322 22.5693 0.810275L16.6477 4.10395L10.5041 0.378127C10.072 0.132853 9.59313 0.00437653 9.11426 0.00437653C8.6354 0.00437653 8.16821 0.121173 7.74774 0.366447L1.95462 3.66012C1.14872 4.10395 0.798327 4.72297 0.798327 5.61063V21.3198C0.798327 22.3009 1.38231 22.8732 2.35173 22.8732ZM8.21493 17.337L3.37954 20C3.29778 20.035 3.2277 20.0701 3.1693 20.0701C3.04083 20.0701 2.95907 19.965 2.95907 19.8131V6.20629C2.95907 5.87926 3.07587 5.66902 3.39122 5.49383L7.84118 2.91262C7.96965 2.83086 8.08645 2.77246 8.21493 2.70238V17.337ZM10.4107 17.4071V2.9827C10.5275 3.0411 10.6677 3.11117 10.7845 3.18125L15.7016 6.14789V20.3621C15.5498 20.2803 15.3863 20.1986 15.2227 20.1168L10.4107 17.4071ZM17.8974 20.5373V5.94934L22.7445 3.30973C22.8029 3.27469 22.8729 3.23965 22.9313 3.23965C23.0598 3.23965 23.1532 3.34477 23.1532 3.48492V17.045C23.1532 17.3721 23.0365 17.5823 22.7328 17.7575L18.4347 20.2453C18.2595 20.3504 18.0726 20.4555 17.8974 20.5373Z" fill="white"/>
</svg>
