<svg width="25" height="19" viewBox="0 0 25 19" fill="none" xmlns="http://www.w3.org/2000/svg">
<path d="M1.80509 4.05445C2.70442 4.05445 3.44024 3.31863 3.44024 2.40762C3.44024 1.50828 2.70442 0.772462 1.80509 0.772462C0.894072 0.772462 0.158252 1.50828 0.158252 2.40762C0.158252 3.31863 0.894072 4.05445 1.80509 4.05445ZM7.2595 3.51719H23.1322C23.7512 3.51719 24.2418 3.02664 24.2418 2.40762C24.2418 1.78859 23.7512 1.29805 23.1322 1.29805H7.2595C6.64048 1.29805 6.14993 1.78859 6.14993 2.40762C6.14993 3.02664 6.64048 3.51719 7.2595 3.51719ZM1.80509 11.2258C2.70442 11.2258 3.44024 10.49 3.44024 9.57895C3.44024 8.67961 2.70442 7.94379 1.80509 7.94379C0.894072 7.94379 0.158252 8.67961 0.158252 9.57895C0.158252 10.49 0.894072 11.2258 1.80509 11.2258ZM7.2595 10.6885H23.1322C23.7512 10.6885 24.2418 10.198 24.2418 9.57895C24.2418 8.95992 23.7512 8.46938 23.1322 8.46938H7.2595C6.64048 8.46938 6.14993 8.95992 6.14993 9.57895C6.14993 10.198 6.64048 10.6885 7.2595 10.6885ZM1.80509 18.3971C2.70442 18.3971 3.44024 17.6613 3.44024 16.7503C3.44024 15.8509 2.70442 15.1151 1.80509 15.1151C0.894072 15.1151 0.158252 15.8509 0.158252 16.7503C0.158252 17.6613 0.894072 18.3971 1.80509 18.3971ZM7.2595 17.8598H23.1322C23.7512 17.8598 24.2418 17.3693 24.2418 16.7503C24.2418 16.1313 23.7512 15.6407 23.1322 15.6407H7.2595C6.64048 15.6407 6.14993 16.1313 6.14993 16.7503C6.14993 17.3693 6.64048 17.8598 7.2595 17.8598Z" fill="white"/>
</svg>
