<svg width="28" height="27" viewBox="0 0 28 27" fill="none" xmlns="http://www.w3.org/2000/svg">
<path d="M14 25.3047C20.1445 25.3047 25.2041 20.2451 25.2041 14.1006C25.2041 7.9668 20.1338 2.89648 13.9893 2.89648C7.85547 2.89648 2.7959 7.9668 2.7959 14.1006C2.7959 20.2451 7.85547 25.3047 14 25.3047ZM8.73633 14.1113C8.73633 13.4346 9.21973 12.9512 9.88574 12.9512H12.8613V9.97559C12.8613 9.32031 13.334 8.83691 13.9893 8.83691C14.666 8.83691 15.1494 9.32031 15.1494 9.97559V12.9512H18.125C18.7803 12.9512 19.2637 13.4346 19.2637 14.1113C19.2637 14.7666 18.7803 15.2393 18.125 15.2393H15.1494V18.2256C15.1494 18.8809 14.666 19.3535 13.9893 19.3535C13.334 19.3535 12.8613 18.8809 12.8613 18.2256V15.2393H9.88574C9.21973 15.2393 8.73633 14.7666 8.73633 14.1113Z" fill="#0A84FF"/>
</svg>
